<svg id="4de13a31-9aff-4c77-88c3-19be75dea47c" data-name="Calque 1" xmlns="http://www.w3.org/2000/svg" viewBox="0 0 655.6 201.17"><defs><style>.b6373bf7-3e97-48a3-8cb0-d3dda28bc2ec{fill:#fff;}</style></defs><title>logo</title><rect width="655.6" height="201.17"/><path class="b6373bf7-3e97-48a3-8cb0-d3dda28bc2ec" d="M513.15,423.93l17-82.49h25.08a48.35,48.35,0,0,1,8.85.77,21.63,21.63,0,0,1,7.09,2.53,12.75,12.75,0,0,1,4.67,4.78,14.94,14.94,0,0,1,1.7,7.42,27.85,27.85,0,0,1-.66,5.83,29,29,0,0,1-4.29,10.06,21.72,21.72,0,0,1-8.69,7.31v.22a19.58,19.58,0,0,1,5.88,5.44,12.22,12.22,0,0,1,1.7,6.65,35.33,35.33,0,0,1-1,7.59q-2.64,12.54-10.5,18.2t-19.63,5.66Zm22.44-14.85q3.63-.11,6.27-.22a11,11,0,0,0,4.51-1,7.33,7.33,0,0,0,3.08-3.08,23,23,0,0,0,2.09-6.32q.22-1,.33-1.81A12.34,12.34,0,0,0,552,395a5,5,0,0,0-3.46-5.33,12.72,12.72,0,0,0-3.85-.71l-4.89-.22Zm7.26-35.19,5.55-.38a10.81,10.81,0,0,0,4.12-1,7.12,7.12,0,0,0,2.91-2.8,18.57,18.57,0,0,0,1.92-5.55,11.41,11.41,0,0,0,.33-2.53,5.11,5.11,0,0,0-.77-3,4.35,4.35,0,0,0-2.09-1.59,10.69,10.69,0,0,0-3.08-.6q-1.76-.11-3.74-.11h-1.54Z" transform="translate(-344.93 -283.42)"/><path class="b6373bf7-3e97-48a3-8cb0-d3dda28bc2ec" d="M570.45,423.93l35.08-82.49h23.32l.88,82.49H610.15l.55-16.06H595.53l-5.61,16.06Zm43.66-67.53h-.22l-13.31,37H611.8Z" transform="translate(-344.93 -283.42)"/><path class="b6373bf7-3e97-48a3-8cb0-d3dda28bc2ec" d="M634.68,423.93l17-82.49h19.36l-13.64,66h23.65l-3.41,16.5Z" transform="translate(-344.93 -283.42)"/><path class="b6373bf7-3e97-48a3-8cb0-d3dda28bc2ec" d="M683.51,423.93l17-82.49h19.36l-13.64,66h23.65l-3.41,16.5Z" transform="translate(-344.93 -283.42)"/><path class="b6373bf7-3e97-48a3-8cb0-d3dda28bc2ec" d="M733.88,423.93l17-82.49h19.36l-17,82.49Z" transform="translate(-344.93 -283.42)"/><path class="b6373bf7-3e97-48a3-8cb0-d3dda28bc2ec" d="M790,377.74l-.33.22-7.7,46H763.58l17-82.49h19.91l5.39,46.08h.33l7.7-46.08h18.37l-17,82.49h-19.8Z" transform="translate(-344.93 -283.42)"/></svg>